<?xml version="1.0" encoding="utf-8"?>
<!-- Generator: Adobe Illustrator 16.0.4, SVG Export Plug-In . SVG Version: 6.00 Build 0)  -->
<!DOCTYPE svg PUBLIC "-//W3C//DTD SVG 1.1//EN" "http://www.w3.org/Graphics/SVG/1.1/DTD/svg11.dtd">
<svg version="1.1" id="Layer_1" xmlns="http://www.w3.org/2000/svg" xmlns:xlink="http://www.w3.org/1999/xlink" x="0px" y="0px"
	 width="262.663px" height="80.682px" viewBox="0 0 262.663 80.682" enable-background="new 0 0 262.663 80.682"
	 xml:space="preserve">
<path fill="#FFFFFF" d="M34.787,36.794c-0.664,4.138-3.202,7.173-5.668,6.776c-2.465-0.396-3.925-4.072-3.26-8.211
	c0.665-4.142,3.202-7.176,5.667-6.78C33.992,28.976,35.452,32.652,34.787,36.794z"/>
<path fill="#FFFFFF" d="M8.372,72.129c-2.337,3.186-5.627,4.178-7.348,2.213c-1.72-1.963-1.221-6.137,1.117-9.322
	c2.337-3.186,5.626-4.176,7.347-2.213C11.208,64.771,10.708,68.943,8.372,72.129z"/>
<path fill="#FFFFFF" d="M4.363,62.812c0,0,16.353-11.812,21.803-28.855l2.072,8.669l1.585,0.925c0,0-4.627,1.562-9.835,10.255
	C14.933,62.242,9.738,70.988,8.102,72.258"/>
<path fill="#FFFFFF" d="M7.626,71.211c0,0,12.035,16.592,27.274,5.721c15.238-10.869-1.955-38.063-1.955-38.063l-4.066,3.73
	c0,0,10.966,20.084-2.627,25.518c-13.593,5.436-15.174-4.088-15.174-4.088"/>
<path fill="#FFFFFF" d="M81.175,61.705c-8.417,8.25-16,10.25-21.851,9.117c-5.09-0.986-8.806-7.438-8.125-15.654
	c0.681-8.215,5.421-14.528,10.589-14.1c3.66,0.303,6.453,2.107,5.451,5.631c-0.412,0.771-0.647,1.652-0.647,2.588
	c0,3.037,2.462,5.5,5.5,5.5c2.589,0,4.754-1.791,5.339-4.199l0.01,0.002c2.497-9.833-5.751-18.591-13.781-19.578
	c-9.456-1.161-18.458,8.785-20.106,22.216c-1.648,13.43,5.622,26.477,16.455,26.561c8.5,0.064,17.25-4,22.917-13.834L81.175,61.705z
	"/>
<path fill="#FFFFFF" d="M115.346,71.201c-0.001-0.002-0.001-0.004-0.001-0.006c-1.652,0.287-3.252,0.035-4.561-0.854
	c-1.645-1.115-2.523-3.023-2.643-5.229c-0.021-0.146-0.047-0.928-0.016-1.164c-0.004,0-0.007-0.002-0.01-0.002
	c0.855-8.848,10.68-21.947,5.598-23.917c-3.281-1.273-8.324,0.774-13.654,5.041c1.572-3.708,3.193-7.368,4.861-10.769
	c7.84-15.994,2.927-32.518-3.162-34.049c-6.088-1.529-14.543,11.232-18.886,28.507c-4.343,17.274-6.837,48.25-0.849,50.139
	c3.123,0.982,6.988-7.119,11.428-17.791c5.387-9.744,16.801-18.242,14.311-13.672c-3.707,6.805-5.973,9.674-7.468,21.691
	c-0.108,0.869-0.144,1.715-0.101,2.529c0,0.066-0.004,0.129-0.002,0.193c0.041,0.936,0.258,1.818,0.604,2.631
	c0.01,0.025,0.019,0.049,0.029,0.074c0.873,1.996,2.582,3.52,4.662,4.18l-0.016,0.041c0.084,0.016,0.168,0.027,0.251,0.043
	c0.513,0.145,1.049,0.219,1.597,0.252c1.096,0.133,2.211,0.193,3.35,0.145c11.422-0.498,16.693-7.463,15.418-17.586
	C119.804,71.057,115.384,71.191,115.346,71.201z M96.865,34.648c-2.994,11.758-8.197,20.885-8.197,20.885
	s-2.177-10.705,0.816-22.462c2.992-11.762,6.696-21.047,9.238-20.4C101.265,13.317,99.857,22.887,96.865,34.648z"/>
<path fill="#FFFFFF" d="M150.009,61.289c-6.688,9.145-18.087,10.336-18.126,10.342c0-0.002,0-0.004,0.001-0.006
	c-1.665,0.217-3.252-0.105-4.521-1.049c-0.232-0.174-0.442-0.367-0.641-0.572c4.635-0.191,9.842-3.275,13.461-8.477
	c5.242-7.537,5.164-16.658-0.176-20.372c-5.338-3.713-13.916-0.616-19.159,6.92c-1.203,1.73-2.112,3.543-2.756,5.355l-0.001-0.045
	c0,0-4.422,11.66-1.059,20.365c0.053,0.178,0.107,0.354,0.172,0.525c0.009,0.023,0.018,0.049,0.026,0.072
	c0.231,0.602,0.547,1.158,0.917,1.672c0.079,0.131,0.152,0.264,0.236,0.393l-0.002-0.076c0.861,1.074,2.007,1.91,3.324,2.393
	l-0.016,0.039c0.082,0.02,0.166,0.035,0.248,0.055c0.505,0.166,1.038,0.264,1.584,0.32c1.088,0.182,2.2,0.291,3.34,0.291
	C138.294,79.436,150.842,71.455,150.009,61.289z M127.568,52.156c1.639-3.037,4.578-4.631,6.564-3.559
	c1.986,1.07,2.268,4.402,0.628,7.439c-1.64,3.039-8.772,4.23-8.772,4.23S125.928,55.195,127.568,52.156z"/>
<path fill="#FFFFFF" d="M25.26,80.674l11.657-11.082l6.588-11.629c0,0,0.75,6.25,8.083,4.5l-1.289,5.354
	C50.299,67.816,36.525,81.039,25.26,80.674z"/>
<path fill="#FFFFFF" d="M181.718,67.706c-0.975,0.001-1.306-0.383-1.391-0.552c-0.024-0.045-0.045-0.094-0.064-0.143
	c-0.012-0.027-0.021-0.055-0.031-0.082c-0.07-0.195-0.117-0.418-0.139-0.672c-0.367-3.203,1.891-11,2.303-12.273
	c0.589-1.225,4.891-17.438,5.623-22.947c2.248-16.9-2.666-30.739-8.91-31.032c-6.242-0.291-12.375,13.128-13.697,29.974
	c-0.281,3.576-0.372,7.712-0.287,12.011c-6.902-2.016-15.256,3.277-19.164,12.418c-4.134,9.668-1.728,19.968,5.375,23.004
	c5.579,2.386,12.385-0.434,17.057-6.43c0.087,0.646,0.217,1.273,0.424,1.854c0.008,0.023,0.016,0.048,0.023,0.07
	c0.713,1.955,2.063,3.447,3.684,4.094l-0.012,0.041c0.065,0.016,0.131,0.027,0.195,0.043c0.398,0.142,0.814,0.215,1.239,0.246
	c0.849,0.133,1.712,0.193,2.591,0.146c8.818-0.475,28.426-10.285,28.676-23.473C194.666,65.627,184.681,67.578,181.718,67.706z
	 M166.195,61.729c-3.107,6.072-8.34,9.605-11.688,7.892c-3.346-1.713-3.54-8.023-0.434-14.096c2.979-5.819,7.904-9.294,11.255-8.065
	c0.247,4.592,0.688,9.182,1.317,13.324C166.503,61.098,166.357,61.413,166.195,61.729z M174.685,56.313
	c0,0-2.98-12.082-2.043-23.557c0.936-11.475,2.992-20.786,5.6-20.656c2.608,0.128,2.856,9.277,1.92,20.753
	C179.224,44.326,174.685,56.313,174.685,56.313z"/>
<path fill="#FFFFFF" d="M237.694,0.101v10.383h5.314V54.22l-9.291,9.292h-13.31l-9.353-9.352V10.483h5.316V0.101h-24.969v10.383
	h5.314v48.571c1.648-0.703,8.254-6.549,9.43-9.141c0,0,3.562,7.281-3.233,16.261l11.542,11.661v0.014h25.215v-0.014l17.676-17.959
	V10.483h5.316V0.101H237.694z"/>
</svg>
